<svg xmlns="http://www.w3.org/2000/svg" viewBox="0 0 200 200">
  <defs>
    <linearGradient id="g" x1="0" x2="1">
      <stop offset="0" stop-color="#ffb26b"/>
      <stop offset="1" stop-color="#e26d23"/>
    </linearGradient>
  </defs>
  <circle cx="100" cy="100" r="96" fill="url(#g)" opacity="0.2"/>
  <path d="M40 140c30 25 90 25 120 0M60 110c5-20 25-30 40-30s35 10 40 30m-40-35c-5-8-5-18 0-26m-15 22c-22 4-37 17-41 33m63-36c3-6 3-14 0-20" fill="none" stroke="#5a3318" stroke-width="5" stroke-linecap="round"/>
  <path d="M102 120q-8 15-2 26 10 18 25 2" fill="none" stroke="#5a3318" stroke-width="5" stroke-linecap="round"/>
  <circle cx="75" cy="95" r="3" fill="#5a3318"/>
  <circle cx="125" cy="95" r="3" fill="#5a3318"/>
</svg>
